# xmcd CD database file
#
# Track frame offsets:
#	150
#	9423
#	25182
#	36420
#	58757
#	71841
#	86380
#	94923
#	104985
#	118041
#	128130
#	145734
#	157723
#	169451
#	184222
#	198563
#	214621
#	230871
#	245668
#	261485
#	276724
#	289409
#	305091
#	317017
#
# Disc length: 4427 seconds
#
# Revision: 1
# Processed by: cddbd v1.5.2PL0 Copyright (c) Steve Scherf et al.
# Submitted via: CDex 1.70beta2
#
DISCID=80114918
DTITLE=Various Artist - Jazz! 100 CD4 (Vocals)
DYEAR=1900
DGENRE=Jazz
TTITLE0=It's Only A Paper Moon
TTITLE1=Autumn In New York
TTITLE2=Moon River
TTITLE3=Love Letters
TTITLE4=These Foolish Things
TTITLE5=Good Morning Heartache
TTITLE6=All of Me
TTITLE7=Come Rain Or Come Shine
TTITLE8=My Foolish Heart
TTITLE9=Alone Together
TTITLE10=Mack The Knife
TTITLE11=Bye Bye Blackbird
TTITLE12=Just Friends
TTITLE13=Black Coffee
TTITLE14=As Time Goes By
TTITLE15=Georgia On My Mind
TTITLE16=Amapola
TTITLE17=Lover Man (Oh, Where Can You Be?)
TTITLE18=Ain't Misbehavin'
TTITLE19=Stormy Weather
TTITLE20=Day By Day
TTITLE21=Speak Low
TTITLE22=Lover Come Back To Me
TTITLE23=What A Wonderful World
EXTD=
EXTT0=
EXTT1=
EXTT2=
EXTT3=
EXTT4=
EXTT5=
EXTT6=
EXTT7=
EXTT8=
EXTT9=
EXTT10=
EXTT11=
EXTT12=
EXTT13=
EXTT14=
EXTT15=
EXTT16=
EXTT17=
EXTT18=
EXTT19=
EXTT20=
EXTT21=
EXTT22=
EXTT23=
PLAYORDER=
